<svg xmlns="http://www.w3.org/2000/svg" viewBox="0 0 200 200" role="img" aria-label="Canadian National Robotic Society (CNRS)">
<style>
  .cnrs-all   { transform-origin: 100px 108px; animation: cnrsBreathe 4.2s ease-in-out infinite; }
  .cnrs-crown { animation: cnrsCrown 2.6s ease-in-out infinite; }
  @keyframes cnrsBreathe { 0%,100% { transform: scale(1); } 50% { transform: scale(1.018); } }
  @keyframes cnrsCrown   { 0%,100% { fill: #f2c75c; } 50% { fill: #ffe6a0; } }
  @media (prefers-reduced-motion: reduce) { .cnrs-all, .cnrs-crown { animation: none; } }
</style>
<g class="cnrs-all">
<g class="cnrs-leaf" fill="#c8102e" fill-rule="evenodd"><path d="M130.0,148.0 130.0,154.7 129.0,155.0 129.0,155.7 130.0,156.0 130.0,159.7 130.7,159.7 131.0,160.7 133.7,160.7 134.0,161.7 143.7,161.7 144.0,166.7 143.0,167.0 142.7,168.0 142.0,168.0 141.7,167.0 139.0,167.0 138.7,168.0 135.0,168.0 134.7,167.0 132.7,166.7 132.7,165.0 132.0,165.0 131.7,164.0 130.0,164.0 130.0,164.7 129.0,165.0 129.0,169.7 129.7,169.7 130.0,170.7 131.7,170.7 132.0,171.7 145.7,171.7 146.0,170.7 147.7,170.7 147.7,169.0 148.7,168.7 148.7,160.0 147.7,159.7 147.7,158.0 146.0,158.0 145.7,157.0 134.0,157.0 133.7,152.0 134.7,151.7 135.0,150.7 143.7,150.7 144.0,151.7 145.0,152.0 145.0,153.7 148.7,153.7 148.7,149.0 148.0,149.0 147.7,148.0 146.7,147.7 146.7,147.0 132.0,147.0 131.7,148.0Z"/><path d="M106.0,147.0 106.0,147.7 105.0,148.0 105.0,170.7 105.7,170.7 106.0,171.7 108.7,171.7 108.7,166.0 109.7,165.7 108.7,164.0 109.7,163.7 110.0,161.7 115.7,161.7 116.0,162.7 117.0,163.0 117.0,164.7 118.0,165.0 118.0,166.7 119.0,167.0 119.0,169.7 119.7,169.7 120.0,170.7 121.0,171.0 121.0,171.7 123.7,171.7 123.7,168.0 122.7,167.7 122.7,166.0 121.7,165.7 121.7,163.0 120.7,162.7 120.7,162.0 121.7,161.7 121.7,161.0 122.7,160.7 123.0,159.7 123.7,159.7 123.7,158.0 124.7,157.7 124.7,151.0 123.7,150.7 123.7,149.0 123.0,149.0 122.7,148.0 121.7,147.7 121.7,147.0Z M109.7,151.0 118.7,150.7 119.0,151.7 119.7,151.7 120.0,152.7 121.0,153.0 121.0,153.7 120.0,154.0 120.0,157.7 110.0,158.0 109.7,157.0 108.7,156.7 108.7,156.0 109.7,155.7 109.7,155.0 108.7,154.7 108.7,153.0 109.7,152.7Z"/><path d="M78.0,147.0 78.0,170.7 78.7,170.7 79.0,171.7 81.7,171.7 81.7,156.0 83.7,155.7 84.0,156.7 84.7,156.7 85.0,157.7 86.0,158.0 86.0,159.7 86.7,159.7 87.0,160.7 87.7,160.7 88.0,161.7 88.7,161.7 89.0,162.7 90.0,163.0 90.0,164.7 90.7,164.7 91.0,165.7 91.7,165.7 92.0,166.7 92.7,166.7 93.0,167.7 94.0,168.0 94.0,169.7 94.7,169.7 95.0,170.7 96.0,171.0 96.0,171.7 98.7,171.7 98.7,171.0 99.7,170.7 99.7,147.0 96.0,147.0 95.7,164.0 95.0,164.0 94.7,163.0 94.0,163.0 93.7,162.0 93.0,162.0 92.7,161.0 91.7,160.7 91.7,159.0 91.0,159.0 90.7,158.0 90.0,158.0 89.7,157.0 88.7,156.7 88.7,155.0 88.0,155.0 87.7,154.0 87.0,154.0 86.7,153.0 85.7,152.7 85.7,151.0 85.0,151.0 84.7,150.0 84.0,150.0 83.7,149.0 83.0,149.0 82.7,148.0 81.7,147.7 81.7,147.0Z"/><path d="M55.0,147.0 55.0,147.7 54.0,148.0 53.7,149.0 53.0,149.0 53.0,169.7 53.7,169.7 54.0,170.7 55.0,171.0 55.0,171.7 70.7,171.7 71.0,170.7 72.7,170.7 72.7,169.0 73.7,168.7 73.7,165.0 73.0,165.0 72.7,164.0 70.0,164.0 70.0,164.7 69.0,165.0 69.0,166.7 67.0,167.0 66.7,168.0 64.0,168.0 63.7,167.0 61.0,167.0 61.0,167.7 60.0,168.0 59.7,167.0 56.7,166.7 56.7,151.0 68.7,150.7 69.0,153.7 72.7,153.7 72.7,151.0 73.7,150.7 73.7,149.0 73.0,149.0 72.7,148.0 71.0,148.0 70.7,147.0Z"/><path d="M84.0,52.0 84.0,57.7 85.0,58.0 85.0,61.7 86.0,62.0 86.0,64.7 115.7,64.7 115.7,62.0 115.0,62.0 114.7,64.0 87.0,64.0 86.7,61.0 85.7,60.7 85.7,58.0 84.7,57.7 84.7,53.0 85.7,52.7 86.0,53.7 87.7,53.7 88.0,54.7 89.0,55.0 89.0,55.7 90.7,55.7 90.7,55.0 89.0,55.0 88.7,54.0 87.7,53.7 87.7,53.0 86.0,53.0 85.7,52.0Z"/><path d="M121.7,48.0 121.0,48.0 121.0,52.7 120.0,53.0 120.0,58.7 119.0,59.0 119.0,62.7 118.0,63.0 118.0,66.7 116.0,67.0 115.7,68.0 112.0,68.0 111.7,69.0 88.0,69.0 88.0,69.7 87.0,70.0 86.7,69.0 85.7,68.7 86.0,67.7 90.7,67.7 90.7,67.0 86.0,67.0 86.0,67.7 85.0,68.0 84.7,67.0 83.7,66.7 83.7,65.0 82.7,64.7 82.7,61.0 82.0,61.0 82.0,65.7 82.7,65.7 83.0,66.7 83.7,66.7 84.0,67.7 85.0,68.0 85.0,69.7 84.0,70.0 84.0,73.7 85.0,74.0 84.7,75.0 83.0,75.0 82.7,74.0 82.0,74.0 81.7,73.0 81.0,73.0 80.7,72.0 79.7,71.7 79.7,70.0 78.0,70.0 77.7,69.0 77.0,69.0 76.7,68.0 76.0,68.0 75.7,67.0 75.0,67.0 74.7,66.0 73.7,65.7 73.7,64.0 72.0,64.0 71.7,63.0 70.0,63.0 70.0,63.7 69.0,64.0 68.7,65.0 68.0,65.0 68.0,66.7 67.0,67.0 67.0,68.7 66.0,69.0 65.7,70.0 62.0,70.0 61.7,69.0 58.0,69.0 57.7,68.0 52.0,68.0 51.7,67.0 50.0,67.0 50.0,67.7 49.0,68.0 49.0,68.7 50.0,69.0 50.0,71.7 51.0,72.0 51.0,73.7 52.0,74.0 52.0,75.7 53.0,76.0 53.0,78.7 54.0,79.0 54.0,80.7 55.0,81.0 55.0,84.7 54.0,85.0 54.0,85.7 53.0,86.0 53.0,86.7 52.0,87.0 52.0,87.7 51.0,88.0 50.7,89.0 50.0,89.0 50.0,91.7 50.7,91.7 51.0,92.7 52.0,93.0 52.0,93.7 53.7,93.7 54.0,94.7 54.7,94.7 55.0,95.7 55.7,95.7 56.0,96.7 56.7,96.7 57.0,97.7 57.7,97.7 58.0,98.7 58.7,98.7 59.0,99.7 60.0,100.0 60.0,100.7 61.7,100.7 62.0,101.7 62.7,101.7 63.0,102.7 63.7,102.7 64.0,103.7 64.7,103.7 65.0,104.7 65.7,104.7 66.0,105.7 66.7,105.7 67.0,106.7 67.7,106.7 68.0,107.7 68.7,107.7 69.0,108.7 70.0,109.0 70.0,109.7 71.7,109.7 72.0,110.7 72.7,110.7 73.0,111.7 73.7,111.7 74.0,112.7 75.0,113.0 75.0,114.7 74.0,115.0 74.0,118.7 73.0,119.0 73.0,122.7 72.0,123.0 72.0,126.7 73.7,126.7 74.0,125.7 77.7,125.7 78.0,124.7 81.7,124.7 82.0,123.7 85.7,123.7 86.0,122.7 89.7,122.7 90.0,121.7 93.7,121.7 94.0,124.7 95.0,125.0 95.0,129.7 96.0,130.0 96.0,134.7 97.0,135.0 97.0,137.7 97.7,137.7 98.0,138.7 103.7,138.7 103.7,138.0 104.7,137.7 104.7,134.0 105.7,133.7 105.7,128.0 106.7,127.7 106.7,123.0 107.7,122.7 108.0,121.7 111.7,121.7 112.0,122.7 114.7,122.7 115.0,123.7 119.7,123.7 120.0,124.7 123.7,124.7 124.0,125.7 126.7,125.7 127.0,126.7 128.7,126.7 129.7,125.0 128.7,124.7 128.7,120.0 127.7,119.7 127.7,116.0 126.7,115.7 127.7,114.0 127.0,114.0 126.7,113.0 127.7,112.7 127.7,112.0 128.7,111.7 128.7,111.0 129.7,110.7 129.7,110.0 130.7,109.7 130.7,109.0 131.7,108.7 132.0,107.7 133.7,107.7 133.7,107.0 134.7,106.7 134.7,106.0 135.7,105.7 135.7,105.0 136.7,104.7 136.7,104.0 137.7,103.7 137.7,103.0 138.7,102.7 138.7,102.0 139.7,101.7 139.7,101.0 140.7,100.7 140.7,100.0 141.7,99.7 142.0,98.7 143.7,98.7 143.7,98.0 144.7,97.7 144.7,97.0 145.7,96.7 145.7,96.0 146.7,95.7 146.7,95.0 147.7,94.7 147.7,94.0 148.7,93.7 149.0,92.7 150.7,92.7 150.7,91.0 151.7,90.7 151.7,89.0 151.0,89.0 150.7,88.0 150.0,88.0 149.7,87.0 149.0,87.0 148.7,86.0 148.0,86.0 147.7,85.0 147.0,85.0 146.7,84.0 145.7,83.7 145.7,83.0 146.7,82.7 146.7,81.0 147.7,80.7 147.7,78.0 148.7,77.7 148.7,76.0 149.7,75.7 149.7,74.0 150.7,73.7 150.7,71.0 151.7,70.7 151.7,67.0 150.0,67.0 149.7,68.0 145.0,68.0 144.7,69.0 139.0,69.0 138.7,70.0 136.0,70.0 135.7,69.0 134.7,68.7 134.7,67.0 134.0,67.0 133.7,66.0 132.7,65.7 132.7,64.0 132.0,64.0 131.7,63.0 129.0,63.0 129.0,64.7 127.0,65.0 127.0,66.7 126.0,67.0 125.7,68.0 124.0,68.0 124.0,69.7 122.0,70.0 122.0,70.7 121.0,71.0 121.0,72.7 119.0,73.0 119.0,73.7 118.0,74.0 118.0,75.7 116.7,75.7 116.7,72.0 117.7,71.7 117.7,70.0 117.0,70.0 116.7,69.0 117.7,68.7 117.7,67.0 118.7,66.7 118.7,63.0 119.7,62.7 119.7,59.0 120.7,58.7 120.7,53.0 121.7,52.7Z"/><path d="M109.7,111.0 113.7,110.7 114.0,111.7 117.7,111.7 118.0,112.7 120.7,112.7 121.0,113.7 122.7,113.7 123.0,114.7 124.0,115.0 124.0,118.7 125.0,119.0 125.0,121.7 123.0,122.0 122.7,121.0 119.0,121.0 118.7,120.0 115.0,120.0 114.7,119.0 112.0,119.0 111.7,118.0 109.0,118.0 108.7,113.0 109.7,112.7Z"/><path d="M92.0,110.0 92.0,114.7 93.0,115.0 92.7,118.0 90.0,118.0 89.7,119.0 86.0,119.0 85.7,120.0 82.0,120.0 81.7,121.0 76.7,120.7 76.7,118.0 77.7,117.7 78.0,113.7 80.7,113.7 81.0,112.7 83.7,112.7 84.0,111.7 87.7,111.7 88.0,110.7 90.7,110.7 91.0,109.7Z"/><path d="M144.0,92.0 143.7,94.0 142.0,94.0 142.0,94.7 141.0,95.0 141.0,95.7 140.0,96.0 140.0,96.7 139.0,97.0 139.0,97.7 138.0,98.0 138.0,98.7 137.0,99.0 137.0,99.7 136.0,100.0 136.0,100.7 135.0,101.0 135.0,101.7 134.0,102.0 133.7,103.0 132.0,103.0 132.0,103.7 131.0,104.0 131.0,104.7 130.0,105.0 130.0,105.7 129.0,106.0 129.0,106.7 128.0,107.0 128.0,107.7 127.0,108.0 127.0,108.7 126.0,109.0 125.7,110.0 120.0,110.0 119.7,109.0 117.0,109.0 116.7,108.0 112.7,107.7 112.7,106.0 113.7,105.7 113.7,105.0 114.7,104.7 114.7,104.0 115.7,103.7 115.7,103.0 116.7,102.7 116.7,102.0 117.7,101.7 117.7,101.0 118.7,100.7 118.7,100.0 119.7,99.7 119.7,99.0 120.7,98.7 120.7,98.0 121.7,97.7 121.7,97.0 122.7,96.7 122.7,96.0 123.7,95.7 123.7,95.0 124.7,94.7 124.7,94.0 125.7,93.7 125.7,93.0 126.7,92.7 126.7,92.0 127.7,91.7 128.0,90.7 138.7,90.7 139.0,91.7Z"/><path d="M56.7,92.0 62.7,91.7 63.0,90.7 73.7,90.7 74.0,91.7 75.0,92.0 75.0,93.7 76.7,93.7 77.0,94.7 77.7,94.7 78.0,95.7 78.7,95.7 79.0,96.7 79.7,96.7 80.0,97.7 80.7,97.7 81.0,98.7 82.0,99.0 82.0,100.7 82.7,100.7 83.0,101.7 84.7,101.7 85.0,102.7 85.7,102.7 86.0,103.7 86.7,103.7 87.0,104.7 87.7,104.7 88.0,105.7 89.0,106.0 89.0,106.7 88.0,107.0 87.7,108.0 85.0,108.0 84.7,109.0 81.0,109.0 80.7,110.0 76.0,110.0 75.7,109.0 75.0,109.0 74.7,108.0 74.0,108.0 73.7,107.0 73.0,107.0 72.7,106.0 71.7,105.7 71.7,105.0 70.0,105.0 69.7,104.0 69.0,104.0 68.7,103.0 68.0,103.0 67.7,102.0 67.0,102.0 66.7,101.0 66.0,101.0 65.7,100.0 65.0,100.0 64.7,99.0 64.0,99.0 63.7,98.0 62.7,97.7 62.7,97.0 61.0,97.0 60.7,96.0 60.0,96.0 59.7,95.0 59.0,95.0 58.7,94.0 58.0,94.0 57.7,93.0 56.7,92.7Z"/><path d="M88.0,72.7 113.0,73.0 113.0,76.7 112.0,77.0 112.0,83.7 111.0,84.0 111.0,88.7 110.0,89.0 110.0,93.7 109.0,94.0 109.0,98.7 108.0,99.0 108.0,103.7 107.0,104.0 107.0,106.7 106.0,107.0 106.0,113.7 105.0,114.0 105.0,119.7 104.0,120.0 104.0,124.7 103.0,125.0 103.0,129.7 102.0,130.0 102.0,133.7 101.0,134.0 100.7,135.0 99.7,134.7 99.7,131.0 98.7,130.7 98.7,126.0 97.7,125.7 97.7,121.0 96.7,120.7 96.7,116.0 95.7,115.7 95.7,110.0 94.7,109.7 94.7,106.0 93.7,105.7 93.7,100.0 92.7,99.7 92.7,95.0 91.7,94.7 91.7,90.0 90.7,89.7 90.7,85.0 89.7,84.7 89.7,80.0 88.7,79.7 88.7,74.0 87.7,73.7Z"/><path d="M132.0,71.7 132.7,71.7 133.0,72.7 134.0,73.0 134.0,73.7 138.7,73.7 139.0,72.7 143.7,72.7 144.0,71.7 146.0,72.0 146.0,75.7 145.0,76.0 145.0,77.7 144.0,78.0 144.0,79.7 143.0,80.0 143.0,82.7 142.0,83.0 142.0,85.7 142.7,85.7 143.0,86.7 144.0,87.0 143.7,88.0 136.0,88.0 135.7,87.0 130.7,86.7 130.7,77.0 131.7,76.7Z"/><path d="M127.7,70.7 128.0,78.7 127.0,79.0 127.0,86.7 126.0,87.0 126.0,88.7 125.0,89.0 125.0,89.7 124.0,90.0 124.0,90.7 123.0,91.0 123.0,91.7 122.0,92.0 122.0,92.7 121.0,93.0 121.0,93.7 120.0,94.0 120.0,94.7 119.0,95.0 119.0,95.7 118.0,96.0 118.0,96.7 117.0,97.0 117.0,97.7 116.0,98.0 116.0,98.7 115.0,99.0 115.0,99.7 114.0,100.0 114.0,100.7 113.0,101.0 112.7,102.0 112.0,102.0 111.7,98.0 112.7,97.7 112.7,93.0 113.7,92.7 113.7,88.0 114.7,87.7 114.7,83.0 115.7,82.7 115.7,82.0 116.7,81.7 116.7,81.0 117.7,80.7 117.7,80.0 118.7,79.7 118.7,79.0 119.7,78.7 119.7,78.0 120.7,77.7 120.7,77.0 121.7,76.7 121.7,76.0 122.7,75.7 122.7,75.0 123.7,74.7 123.7,74.0 124.7,73.7 124.7,73.0 125.7,72.7 125.7,72.0 126.7,71.7 127.0,70.7Z"/><path d="M74.0,70.7 74.7,70.7 75.0,71.7 75.7,71.7 76.0,72.7 76.7,72.7 77.0,73.7 77.7,73.7 78.0,74.7 78.7,74.7 79.0,75.7 79.7,75.7 80.0,76.7 80.7,76.7 81.0,77.7 81.7,77.7 82.0,78.7 82.7,78.7 83.0,79.7 83.7,79.7 84.0,80.7 84.7,80.7 85.0,81.7 85.7,81.7 86.0,82.7 87.0,83.0 87.0,88.7 88.0,89.0 88.0,93.7 89.0,94.0 89.0,98.7 90.0,99.0 89.7,102.0 89.0,102.0 88.7,101.0 88.0,101.0 87.7,100.0 87.0,100.0 86.7,99.0 86.0,99.0 85.7,98.0 85.0,98.0 84.7,97.0 84.0,97.0 83.7,96.0 83.0,96.0 82.7,95.0 82.0,95.0 81.7,94.0 81.0,94.0 80.7,93.0 80.0,93.0 79.7,92.0 79.0,92.0 78.7,91.0 78.0,91.0 77.7,90.0 77.0,90.0 76.7,89.0 76.0,89.0 75.7,88.0 74.7,87.7 74.7,82.0 73.7,81.7Z"/><path d="M69.7,70.7 70.0,78.7 71.0,79.0 71.0,86.7 66.0,87.0 65.7,88.0 58.0,88.0 57.7,87.0 58.7,86.7 59.0,85.7 59.7,85.7 59.7,83.0 58.7,82.7 58.7,81.0 57.7,80.7 57.7,78.0 56.7,77.7 56.7,76.0 55.7,75.7 55.7,74.0 55.0,74.0 54.7,73.0 55.7,72.7 56.0,71.7 57.7,71.7 58.0,72.7 61.7,72.7 62.0,73.7 67.7,73.7 67.7,72.0 68.7,71.7 69.0,70.7Z"/><path d="M100.0,37.0 100.0,38.7 99.0,39.0 99.0,40.7 98.0,41.0 98.0,42.7 97.0,43.0 97.0,44.7 96.0,45.0 96.0,47.7 95.0,48.0 95.0,49.7 94.0,50.0 94.0,50.7 95.7,49.7 95.7,48.0 96.7,47.7 96.7,46.0 97.7,45.7 97.7,43.0 98.7,42.7 98.7,41.0 99.7,40.7 100.0,39.7 101.7,39.7 102.0,41.7 103.0,42.0 103.0,43.7 104.0,44.0 104.0,45.7 105.0,46.0 105.0,47.7 106.0,48.0 106.0,49.7 107.0,50.0 107.0,51.7 108.0,52.0 108.0,54.7 108.7,54.7 109.0,55.7 110.0,56.0 110.0,56.7 111.7,56.7 111.7,56.0 112.7,55.7 112.7,55.0 113.7,54.7 114.0,53.7 115.7,53.7 116.0,52.7 117.0,53.0 117.0,56.7 116.0,57.0 116.0,60.7 116.7,60.7 116.7,57.0 117.7,56.7 117.7,52.0 116.0,52.0 115.7,53.0 114.0,53.0 113.7,54.0 112.0,54.0 112.0,54.7 111.0,55.0 110.7,56.0 110.0,56.0 109.7,54.0 108.7,53.7 108.7,52.0 107.7,51.7 107.7,50.0 106.7,49.7 106.7,48.0 105.7,47.7 105.7,46.0 104.7,45.7 104.7,44.0 103.7,43.7 103.7,42.0 102.7,41.7 102.7,40.0 101.7,39.7 101.7,37.0Z"/><path d="M99.0,31.0 99.0,32.7 98.0,33.0 98.0,34.7 97.0,35.0 97.0,36.7 96.0,37.0 96.0,38.7 96.7,38.7 96.7,37.0 97.7,36.7 97.7,35.0 98.7,34.7 98.7,33.0 99.7,32.7 100.0,31.7 101.7,31.7 102.0,32.7 103.0,33.0 103.0,35.7 104.0,36.0 104.0,37.7 105.0,38.0 105.0,39.7 106.0,40.0 106.0,41.7 107.0,42.0 107.0,43.7 108.0,44.0 108.0,45.7 109.0,46.0 109.0,47.7 110.0,48.0 110.0,50.7 110.7,50.7 111.0,51.7 112.7,51.7 112.7,51.0 113.7,50.7 114.0,49.7 115.7,49.7 115.7,49.0 116.7,48.7 117.0,47.7 118.7,47.7 119.0,46.7 121.7,46.7 121.7,45.0 119.0,45.0 119.0,45.7 118.0,46.0 118.0,46.7 117.0,47.0 116.7,48.0 115.0,48.0 115.0,48.7 114.0,49.0 113.7,50.0 111.0,50.0 110.7,48.0 109.7,47.7 109.7,46.0 108.7,45.7 108.7,43.0 108.0,43.0 107.7,42.0 106.7,41.7 106.7,40.0 105.7,39.7 105.7,38.0 104.7,37.7 104.7,36.0 103.7,35.7 103.7,33.0 102.7,32.7 102.7,31.0 101.0,31.0 100.7,30.0Z"/></g>
<g class="cnrs-crownfill" fill="#c8102e"><rect x="83" y="60" width="36" height="10"/><path transform="translate(101 49) scale(1.05) translate(-101 -49)" d="M80.0,46.0 80.0,49.7 81.0,50.0 81.0,54.7 82.0,55.0 82.0,60.7 83.0,61.0 83.0,64.7 84.0,65.0 84.0,66.7 84.7,66.7 85.0,67.7 85.7,67.7 86.0,66.7 90.7,66.7 91.0,67.7 93.7,67.7 94.0,66.7 96.7,66.7 97.0,67.7 115.7,67.7 116.0,66.7 117.7,66.7 117.7,63.0 118.7,62.7 118.7,59.0 119.7,58.7 119.7,53.0 120.7,52.7 120.7,48.0 121.7,47.7 121.7,47.0 119.0,47.0 118.7,48.0 117.0,48.0 117.0,48.7 116.0,49.0 115.7,50.0 114.0,50.0 114.0,50.7 113.0,51.0 112.7,52.0 111.0,52.0 110.7,51.0 109.7,50.7 109.7,48.0 108.7,47.7 108.7,46.0 107.7,45.7 107.7,44.0 106.7,43.7 106.7,42.0 105.7,41.7 105.7,40.0 104.7,39.7 104.7,38.0 103.7,37.7 103.7,36.0 102.7,35.7 102.7,33.0 102.0,33.0 101.7,32.0 100.0,32.0 100.0,32.7 99.0,33.0 99.0,34.7 98.0,35.0 98.0,36.7 97.0,37.0 97.0,38.7 96.0,39.0 96.0,41.7 95.0,42.0 94.7,43.0 94.0,43.0 94.0,45.7 93.0,46.0 93.0,47.7 92.0,48.0 92.0,49.7 91.0,50.0 90.7,52.0 89.0,52.0 88.7,51.0 87.7,50.7 87.7,50.0 86.0,50.0 85.7,49.0 84.7,48.7 84.7,48.0 83.0,48.0 82.7,47.0 81.7,46.7 81.7,46.0Z"/></g><g class="cnrs-crown" fill="#f2c75c" fill-rule="evenodd"><path d="M80.0,46.0 80.0,49.7 81.0,50.0 81.0,54.7 82.0,55.0 82.0,60.7 83.0,61.0 83.0,64.7 84.0,65.0 84.0,66.7 84.7,66.7 85.0,67.7 85.7,67.7 86.0,66.7 90.7,66.7 91.0,67.7 93.7,67.7 94.0,66.7 96.7,66.7 97.0,67.7 115.7,67.7 116.0,66.7 117.7,66.7 117.7,63.0 118.7,62.7 118.7,59.0 119.7,58.7 119.7,53.0 120.7,52.7 120.7,48.0 121.7,47.7 121.7,47.0 119.0,47.0 118.7,48.0 117.0,48.0 117.0,48.7 116.0,49.0 115.7,50.0 114.0,50.0 114.0,50.7 113.0,51.0 112.7,52.0 111.0,52.0 110.7,51.0 109.7,50.7 109.7,48.0 108.7,47.7 108.7,46.0 107.7,45.7 107.7,44.0 106.7,43.7 106.7,42.0 105.7,41.7 105.7,40.0 104.7,39.7 104.7,38.0 103.7,37.7 103.7,36.0 102.7,35.7 102.7,33.0 102.0,33.0 101.7,32.0 100.0,32.0 100.0,32.7 99.0,33.0 99.0,34.7 98.0,35.0 98.0,36.7 97.0,37.0 97.0,38.7 96.0,39.0 96.0,41.7 95.0,42.0 94.7,43.0 94.0,43.0 94.0,45.7 93.0,46.0 93.0,47.7 92.0,48.0 92.0,49.7 91.0,50.0 90.7,52.0 89.0,52.0 88.7,51.0 87.7,50.7 87.7,50.0 86.0,50.0 85.7,49.0 84.7,48.7 84.7,48.0 83.0,48.0 82.7,47.0 81.7,46.7 81.7,46.0Z"/><path d="M83.7,52.0 85.7,51.7 86.0,52.7 87.7,52.7 88.0,53.7 89.0,54.0 89.0,54.7 90.7,54.7 91.0,55.7 91.7,55.7 91.7,54.0 92.7,53.7 92.7,52.0 93.7,51.7 93.7,50.0 94.7,49.7 94.7,48.0 95.7,47.7 95.7,45.0 96.7,44.7 96.7,43.0 97.7,42.7 97.7,41.0 98.7,40.7 98.7,39.0 99.7,38.7 99.7,37.0 101.7,36.7 102.0,39.7 103.0,40.0 103.0,41.7 104.0,42.0 104.0,43.7 105.0,44.0 105.0,45.7 106.0,46.0 106.0,47.7 107.0,48.0 107.0,49.7 108.0,50.0 108.0,51.7 109.0,52.0 109.0,53.7 110.0,54.0 110.0,55.7 110.7,55.7 110.7,55.0 111.7,54.7 112.0,53.7 113.7,53.7 114.0,52.7 115.7,52.7 116.0,51.7 118.0,52.0 118.0,56.7 117.0,57.0 117.0,60.7 116.0,61.0 116.0,64.7 86.0,65.0 85.7,62.0 84.7,61.7 84.7,58.0 83.7,57.7Z"/></g>
</g>
</svg>
